<svg height='300px' width='300px'  fill="#000000" xmlns:dc="http://purl.org/dc/elements/1.1/" xmlns:cc="http://creativecommons.org/ns#" xmlns:rdf="http://www.w3.org/1999/02/22-rdf-syntax-ns#" xmlns:svg="http://www.w3.org/2000/svg" xmlns="http://www.w3.org/2000/svg" xmlns:sodipodi="http://sodipodi.sourceforge.net/DTD/sodipodi-0.dtd" xmlns:inkscape="http://www.inkscape.org/namespaces/inkscape" version="1.1" x="0px" y="0px" viewBox="0 0 100 100"><g transform="translate(0,-952.36218)"><path style="text-indent:0;text-transform:none;direction:ltr;block-progression:tb;baseline-shift:baseline;color:#000000;enable-background:accumulate;" d="m 50.000002,958.36218 c -9.92935,0 -18,8.0707 -18,18 0,9.9293 8.07065,18 18,18 9.92935,0 18,-8.0707 18,-18 0,-9.9293 -8.07065,-18 -18,-18 z m 0,2 c 8.84847,0 16,7.1516 16,16 0,8.8484 -7.15153,16 -16,16 -8.84847,0 -16,-7.1516 -16,-16 0,-8.8484 7.15153,-16 16,-16 z m 0,42.00002 c -11.26785,0 -21.44839,3.1451 -28.875,8.3438 -7.42661,5.1986 -12.125,12.5168 -12.125,20.6562 l 0,14 a 1.0001,1.0001 0 0 0 1,1 l 79.999996,0 a 1.0001,1.0001 0 0 0 1,-1 l 0,-14 c 0,-8.1394 -4.69839,-15.4576 -12.125,-20.6562 -7.426606,-5.1987 -17.607146,-8.3438 -28.874996,-8.3438 z m 0,2 c 10.89215,0 20.71661,3.0766 27.749996,8 7.03339,4.9234 11.25,11.6274 11.25,19 l 0,13 -77.999996,0 0,-13 c 0,-7.3726 4.21661,-14.0766 11.25,-19 7.03339,-4.9234 16.85785,-8 27.75,-8 z" fill="#000000" fill-opacity="1" stroke="none" marker="none" visibility="visible" display="inline" overflow="visible"></path></g></svg>