<svg height='300px' width='300px'  fill="#000000" xmlns:dc="http://purl.org/dc/elements/1.1/" xmlns:cc="http://creativecommons.org/ns#" xmlns:rdf="http://www.w3.org/1999/02/22-rdf-syntax-ns#" xmlns:svg="http://www.w3.org/2000/svg" xmlns="http://www.w3.org/2000/svg" xmlns:sodipodi="http://sodipodi.sourceforge.net/DTD/sodipodi-0.dtd" xmlns:inkscape="http://www.inkscape.org/namespaces/inkscape" version="1.1" x="0px" y="0px" viewBox="0 0 100 100"><g transform="translate(0,-952.36218)"><path d="m 50,962.36225 c -7.7387,0 -14,6.2613 -14,14 l 0,9.99993 -10,0 c -0.62163,0.01 -0.93937,0.52573 -1,0.90625 l -5,53.99997 c -0.0521,0.5539 0.44366,1.0961 1,1.0937 l 58,0 c 0.55635,0 1.0521,-0.5398 1,-1.0937 l -5,-53.99997 c -0.0463,-0.49158 -0.50623,-0.90838 -1,-0.90625 l -10,0 0,-9.99993 c 0,-7.7387 -6.2613,-14 -14,-14 z m 0,2 c 6.6653,0 12,5.3347 12,12 l 0,9.99993 -24,0 0,-9.99993 c 0,-6.6653 5.33469,-12 12,-12 z m -23.09375,23.99993 46.1875,0 4.8125,51.99992 -55.8125,0 z" style="text-indent:0;text-transform:none;direction:ltr;block-progression:tb;baseline-shift:baseline;color:#000000;enable-background:accumulate;" fill="#000000" fill-opacity="1" stroke="none" marker="none" visibility="visible" display="inline" overflow="visible"></path></g></svg>