<svg height='300px' width='300px'  fill="#000000" xmlns="http://www.w3.org/2000/svg" xmlns:xlink="http://www.w3.org/1999/xlink" viewBox="0 0 240 240" version="1.1" x="0px" y="0px"><title>search</title><desc>Created with Sketch.</desc><g stroke="none" stroke-width="1" fill="none" fill-rule="evenodd"><path d="M104.5,34 C134.599519,34 159,58.4004811 159,88.5 C159,101.960129 154.120473,114.280583 146.033835,123.788947 L194.242395,173.045617 L189.954383,177.242395 L141.899228,128.142949 C132.139369,137.353751 118.979061,143 104.5,143 C74.4004811,143 50,118.599519 50,88.5 C50,58.4004811 74.4004811,34 104.5,34 Z M104.5,40 C77.7141896,40 56,61.7141896 56,88.5 C56,115.28581 77.7141896,137 104.5,137 C131.28581,137 153,115.28581 153,88.5 C153,61.7141896 131.28581,40 104.5,40 Z" fill="#000000" fill-rule="nonzero"></path></g></svg>